<?xml version="1.0" encoding="UTF-8"?>
<svg id="logo-mp"
  xmlns="http://www.w3.org/2000/svg" viewBox="0 0 443.192 420.607">
  <g id="logo-panda">
    <path d="M179.044.806c-29.353,7.386-37.465,42.244-18.676,64.809,1.08,1.582,1.448,2.521.779,3.981-1.062,2.455-2.796,5.313-3.889,7.784-1.902,4.135-4.928,11.795-6.898,16.735-1.687,3.855-4.228,9.423-4.896,14.38-.808,7.166-.182,18.481.121,26.451-.08,3.897.092,19.974.016,26.143.36,2.681-2.45,4.939-3.93,7.334-6.378,9.924-17.582,32.569-23.501,42.872-1.601,2.648-4.122,7.359-5.207,9.791-.432,1.173.096,1.303,1.691.835,7.976-3.541,16.711-5.172,26.057-4.518,22.717,1.476,61.11,12.455,83.33,26.836,18.373,12.64,32.348,35.049,48.305,50.231,1.377,1.423,5.883,3.901,2.375,5.646-18.358,5.886-35.005,19.62-41.921,38.513-7.981,18.131-6.628,41.074-6.648,62.874.212,3.831-.511,2.899-3.449,3.154-31.704,1.992-63.066.865-90.565-9.555-22.326-8.768-46.131-19.499-57.898-39.595-5.233-7.705-3.355-20.077-3.657-29.296-1.578-18.772,14.264-46.928,23.926-67.861,1.93-4.506,8.948-18.571,8.14-21.053-17.019,22.459-36.028,69.455-38.265,90.153-1.033,12.545-.616,27.023,3.163,36.714,4.977,11.619,15.981,25.17,25.069,31.952,4.972,3.56,10.412,5.82.004,6.291-25.362,1.979-123.737,6.069-82.759,11.603,31.806,6.663,156.334,6.613,225.732,6.594,89.812-1.235,151.042,1.126,207.599-8.617-1.337-5.426-62.914-7.057-77.678-8.59-9.596-.983-14.16-.369-19.445-2.237-.427-.395-.227-1.114.723-2.144,1.827-2.108,3.708-3.907,5.38-5.818,22.34-22.251,24.283-66.626-5.344-83.551-4.734-3.074-9.658-5.204-15.013-6.441-2.898-.814-4.067-1.284-2.364-4.666,1.554-3.755,3.647-7.667,4.52-11.538,3.09-13.117-10.748-33.249-18.156-43.794-.011-.743,1.424-1.709,2.539-2.309,5.864-2.835,9.382-4.276,14.789-9.795,3.485-4.14,12.079-10.197,11.752-15.412-.401-5.803-2.545-13.074-.724-18.944,4.382-10.529,10.916-20.853,16.499-30.834,12.057-20.666,14.687-42.46,10.881-65.902-1.692-6.869-3.876-11.041-4.686-18.739-.978-7.406-1.142-14.891-2.041-22.262-1.193-10.009-2.66-13.445-10.846-19.278-3.884-2.796-7.532-5.067-12.499-5.592-6.259-.894-13.1.027-19.516-.715-2.045-.741-4.314-2.528-6.267-3.669-24.742-18.403-59.693-19.722-94.572-13.993-1.13.089-1.79-.174-2.733-1.059-2.303-2.199-4.617-4.999-6.922-6.998C203.197-.678,190.255-.781,179.207.771l-.163.034ZM287.026,23.267c37.679,8.25,72.099,40.415,79.22,77.186,2.086,14.425,1.894,32.208-.417,46.728-.505,2.719-1.078,4.862-1.781,6.266-.282.52-.656,1.055-1.215,1.277-.777.358-1.717-.329-2.605-.497-4.873.753-9.404,10.514-11.915,15.587-4.343,9.04-7.893,21.126-10.24,31.113-.882,2.786-2.122,10.285-4.547,10.716-.511.094-.95.128-1.553.29-2.069.447-2.356,2.184-1.316,3.973,1.097,2.175,3.505,4.478,3.866,6.685-.204,4.778-22.943,13.328-25.882,11.895-14.82-5.956-31.033-22.197-44.884-34.201-18.943-18.199-50.857-45.769-73.525-51.295-5.854-1.298-13.049-1.167-19.118-.996-1.9.048-4.71.132-6.368.166-1.374.027-1.979-.138-2.476-1.171-1.04-2.561-1.999-5.334-2.804-7.856-1.484-3.965-1.671-10.462-1.704-15.578-.192-13.335-.212-29.219,5.333-38.881.781-1.643,1.385-2.876,2.305-4.686,1.143-1.834,2.008-5.083,3.801-6.351,1.121-.56,2.404-.343,3.682-.336,3.545.084,7.977.733,12.315,1.374,3.051.448,7.112,1.145,9.71.531,9.551-2.508,18.822-8.056,24.354-16.27,2.328-3.578,3.893-6.502,4.772-10.247,1.021-5.438.777-11.19,1.076-16.811.166-2.385.04-6.142,2.021-7.239,2.179-1.214,5.439-1.585,7.945-2.1,10.092-1.192,41.232-1.22,51.802.696l.147.03Z"/>
    <path d="M304.662,142.842c-11.088,6.156-19.955,10.885-29.648,14.698-6.088,1.996-13.829,6.078-17.275,10.51-5.491,7.246,2.86,16.462,9.634,20.253,9.979,6.057,34.248,13.722,45.607,9.041,9.371-7.64,8.212-44.903,5.179-55.325-.39-1.296-.78-2.475-1.569-3.51-.891-1.051-1.459-1.025-4.133.218-2.527,1.179-5.117,2.616-7.575,3.992l-.22.123Z"/>
  </g>
  <g id="logo-font">
    <path d="M117.803,277.029c-7.382,20.812-11.53,41.683-14.201,61.635-.117,1.068-1.215,2.127-2.283,2.011-4.758-.52-2.887-21.247-2.473-25.033,1.347-12.333,4.345-24.486,6.244-30.175,2.199-6.638,6.295-19.851,16.104-18.779,3.302.361,5.734,3.28,6.237,6.774l7.282,46.687c.522,2.416.47,2.901.762,2.933.291.032.344-.453,1.483-2.785l18.148-44.694c1.192-2.818,5.301-3.549,7.826-3.273,6.604.722,6.518,13.192,6.193,17.972-.537,7.606-3.424,38.541-6.069,49.258-.353,1.436-1.425,4.954-2.591,4.827-2.427-.266-3.615-6.488-3.521-8.247l4.161-54.28-.961-.203c-1.478,5.439-10.249,28.164-13.33,36.573-1.406,3.876-6.422,15.611-11.958,15.007-2.04-.223-3.217-1.138-4.386-3.034-7.004-14.13-6.504-34.908-11.781-53.173l-.886.002Z"/>
    <path d="M189.068,278.623c16.509,1.804,39.751,16.626,37.884,33.717-1.22,11.168-17.788,18.006-33.034,16.34-1.067-.116-1.942-.212-4.717-.908-.266,1.543-.479,3.485-.722,5.719-.393,3.593-.784,8.07-1.108,13.735-.362,2.416-2.849,4.504-5.254,4.929-1.165-.127-1.209-.624-2.022-2.187-.142-1.392-.295-2.686-.331-4.163.03-1.176.124-2.935.357-5.071l1.637-13.186.233-2.137c-4.978-2.116-12.593-7.959-11.999-13.397.467-4.272,4.086-7.71,10.793-8.844.496-.044,2.804-.48,3.29-.427.383-2.611.648-5.039,1.055-6.961.459-2.405,1.102-4.694,3.903-6.943,1.35,1.13,2.393,5.077,2.32,6.642l-.201,8.134c8.644.944,10.538,4.296,10.209,7.306-.212,1.942-1.225,3.109-3.285,3.081.248-.464.397-.939.439-1.328.223-2.039-1.645-2.931-7.763-3.6l-1.11,11.966c1.619.472,2.871.707,4.62.897,6.797.742,23.568-.766,24.576-9.991,1.825-16.703-25.13-26.33-34.064-27.306-3.689-.403-8.468-.729-12.386-.861l-.076-1.09c4.201-3.374,10.25-4.776,16.756-4.065ZM178.971,308.082c-2.479.22-4.831,1.044-5.053,3.083-.382,3.496,5.351,5.891,8.557,7.126l1.093-10.002c-1.263-.139-3.507-.285-4.597-.207Z"/>
  </g>
</svg>